<svg xmlns="http://www.w3.org/2000/svg" viewBox="0 0 128 128">
  <defs>
    <linearGradient id="grad1" x1="0%" y1="0%" x2="100%" y2="100%">
      <stop offset="0%" style="stop-color:#4F46E5;stop-opacity:1" />
      <stop offset="100%" style="stop-color:#7C3AED;stop-opacity:1" />
    </linearGradient>
  </defs>

  <!-- Book shape -->
  <rect x="24" y="20" width="80" height="88" rx="4" fill="url(#grad1)"/>

  <!-- Book pages -->
  <rect x="28" y="24" width="72" height="80" rx="2" fill="#F3F4F6"/>

  <!-- Text lines -->
  <rect x="36" y="36" width="56" height="4" rx="2" fill="#6366F1" opacity="0.6"/>
  <rect x="36" y="46" width="48" height="3" rx="1.5" fill="#8B5CF6" opacity="0.5"/>
  <rect x="36" y="54" width="52" height="3" rx="1.5" fill="#8B5CF6" opacity="0.5"/>

  <!-- Brain icon -->
  <g transform="translate(44, 64)">
    <path d="M20,0 C25,0 28,3 28,8 C32,8 35,11 35,15 C35,19 32,22 28,22 C28,27 25,30 20,30 C15,30 12,27 12,22 C8,22 5,19 5,15 C5,11 8,8 12,8 C12,3 15,0 20,0 Z"
          fill="#7C3AED" opacity="0.8"/>
    <circle cx="16" cy="12" r="2" fill="#F3F4F6"/>
    <circle cx="24" cy="12" r="2" fill="#F3F4F6"/>
  </g>

  <!-- Book binding -->
  <rect x="24" y="20" width="6" height="88" rx="2" fill="#312E81" opacity="0.3"/>
</svg>